<svg width="1685" height="467" viewBox="0 0 1685 467" fill="none" xmlns="http://www.w3.org/2000/svg">
<g opacity="0.8">
<path d="M1.09863 466.072C42.9282 439.167 212.429 297.218 516.997 297.218C897.707 297.218 1110.49 627.968 1684.59 354.74" stroke="#164C73" stroke-width="0.987317"/>
<path d="M1.09863 169.371C42.9282 142.466 212.429 0.51709 516.997 0.51709C897.707 0.51709 1110.49 331.267 1684.59 58.0389" stroke="#164C73" stroke-width="0.987317"/>
<path d="M1.09863 456.501C42.9282 429.596 212.429 287.647 516.997 287.647C897.707 287.647 1110.49 618.397 1684.59 345.169" stroke="#164C73" stroke-width="0.987317"/>
<path d="M1.09863 446.93C42.9282 420.025 212.429 278.076 516.997 278.076C897.707 278.076 1110.49 608.826 1684.59 335.598" stroke="#164C73" stroke-width="0.987317"/>
<path d="M1.09863 437.359C42.9282 410.454 212.429 268.505 516.997 268.505C897.707 268.505 1110.49 599.255 1684.59 326.027" stroke="#164C73" stroke-width="0.987317"/>
<path d="M1.09863 427.788C42.9282 400.883 212.429 258.934 516.997 258.934C897.707 258.934 1110.49 589.684 1684.59 316.456" stroke="#164C73" stroke-width="0.987317"/>
<path d="M1.09863 418.217C42.9282 391.312 212.429 249.363 516.997 249.363C897.707 249.363 1110.49 580.113 1684.59 306.885" stroke="#164C73" stroke-width="0.987317"/>
<path d="M1.09863 408.646C42.9282 381.741 212.429 239.792 516.997 239.792C897.707 239.792 1110.49 570.542 1684.59 297.314" stroke="#164C73" stroke-width="0.987317"/>
<path d="M1.09863 399.075C42.9282 372.17 212.429 230.221 516.997 230.221C897.707 230.221 1110.49 560.971 1684.59 287.743" stroke="#164C73" stroke-width="0.987317"/>
<path d="M1.09863 389.504C42.9282 362.599 212.429 220.65 516.997 220.65C897.707 220.65 1110.49 551.4 1684.59 278.172" stroke="#164C73" stroke-width="0.987317"/>
<path d="M1.09863 379.933C42.9282 353.028 212.429 211.079 516.997 211.079C897.707 211.079 1110.49 541.829 1684.59 268.601" stroke="#164C73" stroke-width="0.987317"/>
<path d="M1.09863 370.363C42.9282 343.457 212.429 201.508 516.997 201.508C897.707 201.508 1110.49 532.259 1684.59 259.03" stroke="#164C73" stroke-width="0.987317"/>
<path d="M1.09863 360.791C42.9282 333.886 212.429 191.937 516.997 191.937C897.707 191.937 1110.49 522.687 1684.59 249.459" stroke="#164C73" stroke-width="0.987317"/>
<path d="M1.09863 351.22C42.9282 324.315 212.429 182.366 516.997 182.366C897.707 182.366 1110.49 513.116 1684.59 239.888" stroke="#164C73" stroke-width="0.987317"/>
<path d="M1.09863 341.649C42.9282 314.744 212.429 172.795 516.997 172.795C897.707 172.795 1110.49 503.545 1684.59 230.317" stroke="#164C73" stroke-width="0.987317"/>
<path d="M1.09863 332.078C42.9282 305.173 212.429 163.224 516.997 163.224C897.707 163.224 1110.49 493.974 1684.59 220.746" stroke="#164C73" stroke-width="0.987317"/>
<path d="M1.09863 322.508C42.9282 295.602 212.429 153.653 516.997 153.653C897.707 153.653 1110.49 484.404 1684.59 211.175" stroke="#164C73" stroke-width="0.987317"/>
<path d="M1.09863 312.936C42.9282 286.031 212.429 144.082 516.997 144.082C897.707 144.082 1110.49 474.832 1684.59 201.604" stroke="#164C73" stroke-width="0.987317"/>
<path d="M1.09863 303.365C42.9282 276.46 212.429 134.511 516.997 134.511C897.707 134.511 1110.49 465.261 1684.59 192.033" stroke="#164C73" stroke-width="0.987317"/>
<path d="M1.09863 293.794C42.9282 266.889 212.429 124.94 516.997 124.94C897.707 124.94 1110.49 455.69 1684.59 182.462" stroke="#164C73" stroke-width="0.987317"/>
<path d="M1.09863 284.223C42.9282 257.318 212.429 115.369 516.997 115.369C897.707 115.369 1110.49 446.119 1684.59 172.891" stroke="#164C73" stroke-width="0.987317"/>
<path d="M1.09863 274.652C42.9282 247.747 212.429 105.798 516.997 105.798C897.707 105.798 1110.49 436.548 1684.59 163.32" stroke="#164C73" stroke-width="0.987317"/>
<path d="M1.09863 265.081C42.9282 238.176 212.429 96.2271 516.997 96.2271C897.707 96.2271 1110.49 426.977 1684.59 153.749" stroke="#164C73" stroke-width="0.987317"/>
<path d="M1.09863 255.51C42.9282 228.605 212.429 86.6562 516.997 86.6562C897.707 86.6562 1110.49 417.406 1684.59 144.178" stroke="#164C73" stroke-width="0.987317"/>
<path d="M1.09863 245.939C42.9282 219.034 212.429 77.085 516.997 77.085C897.707 77.085 1110.49 407.835 1684.59 134.607" stroke="#164C73" stroke-width="0.987317"/>
<path d="M1.09863 236.368C42.9282 209.463 212.429 67.5142 516.997 67.5142C897.707 67.5142 1110.49 398.264 1684.59 125.036" stroke="#164C73" stroke-width="0.987317"/>
<path d="M1.09863 226.797C42.9282 199.892 212.429 57.9429 516.997 57.9429C897.707 57.9429 1110.49 388.693 1684.59 115.465" stroke="#164C73" stroke-width="0.987317"/>
<path d="M1.09863 217.226C42.9282 190.321 212.429 48.3721 516.997 48.3721C897.707 48.3721 1110.49 379.122 1684.59 105.894" stroke="#164C73" stroke-width="0.987317"/>
<path d="M1.09863 207.656C42.9282 180.75 212.429 38.8013 516.997 38.8013C897.707 38.8013 1110.49 369.551 1684.59 96.323" stroke="#164C73" stroke-width="0.987317"/>
<path d="M1.09863 198.084C42.9282 171.179 212.429 29.23 516.997 29.23C897.707 29.23 1110.49 359.98 1684.59 86.7518" stroke="#164C73" stroke-width="0.987317"/>
<path d="M1.09863 188.513C42.9282 161.608 212.429 19.6587 516.997 19.6587C897.707 19.6587 1110.49 350.409 1684.59 77.1805" stroke="#164C73" stroke-width="0.987317"/>
<path d="M1.09863 178.942C42.9282 152.037 212.429 10.0879 516.997 10.0879C897.707 10.0879 1110.49 340.838 1684.59 67.6097" stroke="#164C73" stroke-width="0.987317"/>
</g>
</svg>
